<svg xmlns="http://www.w3.org/2000/svg" width="689" height="384" viewBox="0 0 689 384" fill="none"><g clip-path="url(#clip0)"><path d="M233.303 91.291V80.4578C233.303 79.3977 232.443 78.5395 231.383 78.5395H228.593C227.776 78.5395 227.052 77.9846 226.869 77.1888C225.904 72.9823 224.259 69.0348 222.039 65.4772C221.596 64.767 221.681 63.8517 222.272 63.2599L224.234 61.2993C224.984 60.55 224.984 59.3356 224.234 58.5862L216.568 50.9269C215.818 50.1775 214.603 50.1775 213.853 50.9269L211.893 52.8853C211.3 53.4772 210.384 53.5607 209.673 53.1178C206.113 50.8994 202.161 49.2538 197.948 48.2867C197.152 48.1039 196.598 47.382 196.598 46.5661V43.7864C196.598 42.7264 195.738 41.8682 194.678 41.8682H183.835C182.774 41.8682 181.915 42.7274 181.915 43.7864V46.5661C181.915 47.382 181.359 48.1049 180.563 48.2867C176.351 49.2527 172.398 50.8983 168.836 53.1168C168.125 53.5596 167.209 53.4761 166.617 52.8843L164.658 50.9279C163.908 50.1786 162.693 50.1786 161.943 50.9279L154.277 58.5873C153.527 59.3366 153.527 60.551 154.277 61.3004L156.237 63.2588C156.829 63.8507 156.913 64.766 156.47 65.4762C154.251 69.0348 152.606 72.9834 151.639 77.1898C151.456 77.9857 150.733 78.5406 149.916 78.5406H147.128C146.067 78.5406 145.208 79.3998 145.208 80.4588V91.2921C145.208 92.3522 146.068 93.2104 147.128 93.2104H149.917C150.733 93.2104 151.456 93.7652 151.639 94.56C152.607 98.7676 154.253 102.715 156.471 106.272C156.914 106.982 156.831 107.897 156.238 108.489L154.275 110.451C153.525 111.2 153.525 112.414 154.275 113.164L161.941 120.824C162.691 121.573 163.906 121.573 164.656 120.824L166.621 118.861C167.213 118.27 168.129 118.186 168.839 118.628C172.399 120.843 176.349 122.484 180.56 123.45C181.356 123.633 181.912 124.355 181.912 125.171V127.966C181.912 129.026 182.772 129.884 183.832 129.884H194.674C195.735 129.884 196.594 129.025 196.594 127.966V125.171C196.594 124.354 197.15 123.632 197.946 123.449C202.156 122.484 206.106 120.842 209.665 118.627C210.376 118.185 211.292 118.268 211.883 118.86L213.849 120.824C214.599 121.573 215.815 121.573 216.564 120.824L224.23 113.164C224.98 112.414 224.98 111.199 224.23 110.451L222.266 108.489C221.673 107.897 221.59 106.982 222.033 106.272C224.251 102.715 225.896 98.7686 226.863 94.5611C227.046 93.7652 227.769 93.2104 228.586 93.2104H231.379C232.444 93.2093 233.303 92.3511 233.303 91.291ZM189.254 116.419C172.37 116.419 158.702 102.735 158.702 85.8659C158.702 69.0221 172.37 55.3394 189.254 55.3394C206.139 55.3394 219.807 69.0231 219.807 85.8659C219.807 102.735 206.139 116.419 189.254 116.419Z" stroke="#DEE3FC" stroke-width="0.7896" stroke-miterlimit="10"></path><path d="M283.171 127.962V120.58C283.171 119.858 282.585 119.272 281.863 119.272H279.961C279.404 119.272 278.911 118.894 278.787 118.352C278.129 115.485 277.007 112.795 275.495 110.37C275.193 109.886 275.25 109.262 275.653 108.86L276.99 107.524C277.501 107.013 277.501 106.186 276.99 105.674L271.766 100.454C271.255 99.9436 270.427 99.9436 269.915 100.454L268.579 101.789C268.174 102.193 267.55 102.249 267.066 101.948C264.639 100.435 261.946 99.3137 259.076 98.6553C258.533 98.5306 258.156 98.0391 258.156 97.4821V95.5881C258.156 94.8663 257.57 94.2808 256.847 94.2808H249.458C248.736 94.2808 248.15 94.8663 248.15 95.5881V97.4821C248.15 98.038 247.771 98.5306 247.228 98.6553C244.357 99.3137 241.663 100.435 239.236 101.946C238.752 102.248 238.128 102.191 237.724 101.788L236.39 100.454C235.879 99.9436 235.051 99.9436 234.539 100.454L229.314 105.674C228.803 106.185 228.803 107.012 229.314 107.524L230.65 108.859C231.053 109.261 231.11 109.886 230.809 110.369C229.296 112.793 228.175 115.485 227.517 118.352C227.392 118.894 226.9 119.272 226.343 119.272H224.443C223.72 119.272 223.134 119.858 223.134 120.58V127.962C223.134 128.684 223.72 129.27 224.443 129.27H226.344C226.9 129.27 227.393 129.647 227.518 130.189C228.177 133.056 229.299 135.747 230.811 138.171C231.112 138.655 231.055 139.278 230.652 139.682L229.315 141.019C228.804 141.53 228.804 142.357 229.315 142.868L234.54 148.088C235.051 148.598 235.88 148.598 236.391 148.088L237.73 146.75C238.133 146.347 238.758 146.289 239.242 146.591C241.667 148.1 244.36 149.22 247.229 149.877C247.772 150.002 248.151 150.493 248.151 151.05V152.955C248.151 153.677 248.737 154.262 249.459 154.262H256.848C257.571 154.262 258.157 153.677 258.157 152.955V151.05C258.157 150.494 258.536 150.002 259.078 149.877C261.947 149.22 264.639 148.1 267.065 146.591C267.549 146.29 268.173 146.347 268.576 146.75L269.916 148.089C270.427 148.599 271.255 148.599 271.767 148.089L276.991 142.869C277.502 142.358 277.502 141.531 276.991 141.019L275.652 139.682C275.248 139.279 275.191 138.655 275.494 138.171C277.005 135.747 278.127 133.057 278.786 130.19C278.91 129.648 279.402 129.27 279.96 129.27H281.863C282.585 129.27 283.171 128.684 283.171 127.962ZM253.152 143.912C242.296 143.912 233.506 135.113 233.506 124.265C233.506 113.434 242.296 104.635 253.152 104.635C264.01 104.635 272.799 113.434 272.799 124.265C272.799 135.113 264.01 143.912 253.152 143.912Z" fill="#DEE3FC"></path><path d="M144.031 323.434C146.009 323.434 147.613 321.832 147.613 319.856C147.613 317.879 146.009 316.277 144.031 316.277C142.053 316.277 140.449 317.879 140.449 319.856C140.449 321.832 142.053 323.434 144.031 323.434Z" fill="#A4AFFF"></path><path d="M623.896 225.648C625.874 225.648 627.478 224.045 627.478 222.069C627.478 220.092 625.874 218.49 623.896 218.49C621.918 218.49 620.314 220.092 620.314 222.069C620.314 224.045 621.918 225.648 623.896 225.648Z" fill="#FE5B40"></path><path d="M616.732 97.8585C618.711 97.8585 620.314 96.2563 620.314 94.2799C620.314 92.3034 618.711 90.7012 616.732 90.7012C614.754 90.7012 613.151 92.3034 613.151 94.2799C613.151 96.2563 614.754 97.8585 616.732 97.8585Z" fill="#FE5B40"></path><path d="M487.948 53.0913C489.189 53.0913 490.195 52.0862 490.195 50.8464C490.195 49.6066 489.189 48.6016 487.948 48.6016C486.707 48.6016 485.701 49.6066 485.701 50.8464C485.701 52.0862 486.707 53.0913 487.948 53.0913Z" fill="#A4AFFF"></path><path d="M158.053 20.9426C158.053 22.1824 157.047 23.1875 155.807 23.1875C154.566 23.1875 153.56 22.1824 153.56 20.9426C153.56 19.7029 154.566 18.6978 155.807 18.6978C157.047 18.6978 158.053 19.7029 158.053 20.9426Z" fill="#A4AFFF"></path><path d="M207.782 159.181C207.782 160.421 206.776 161.426 205.535 161.426C204.294 161.426 203.288 160.421 203.288 159.181C203.288 157.941 204.294 156.936 205.535 156.936C206.776 156.936 207.782 157.941 207.782 159.181Z" fill="#FE5B40"></path><path d="M125.355 323.434C125.355 324.674 124.349 325.679 123.108 325.679C121.867 325.679 120.861 324.674 120.861 323.434C120.861 322.195 121.867 321.189 123.108 321.189C124.349 321.189 125.355 322.195 125.355 323.434Z" fill="#A4AFFF"></path><path d="M571.353 325.548C573.331 325.548 574.934 323.946 574.934 321.969C574.934 319.993 573.331 318.391 571.353 318.391C569.374 318.391 567.771 319.993 567.771 321.969C567.771 323.946 569.374 325.548 571.353 325.548Z" fill="#A4AFFF"></path><path d="M647.516 325.548C649.494 325.548 651.098 323.946 651.098 321.969C651.098 319.993 649.494 318.391 647.516 318.391C645.538 318.391 643.934 319.993 643.934 321.969C643.934 323.946 645.538 325.548 647.516 325.548Z" fill="#A4AFFF"></path><path d="M219.807 14.7638C221.786 14.7638 223.389 13.1616 223.389 11.1851C223.389 9.20867 221.786 7.60645 219.807 7.60645C217.829 7.60645 216.226 9.20867 216.226 11.1851C216.226 13.1616 217.829 14.7638 219.807 14.7638Z" fill="#FE5B40"></path><path d="M466.944 174.01C466.944 176.654 464.797 178.798 462.151 178.798C459.504 178.798 457.358 176.655 457.358 174.01C457.358 171.365 459.503 169.221 462.151 169.221C464.798 169.221 466.944 171.365 466.944 174.01Z" fill="#FE5B40"></path><path d="M113.452 114.796C113.452 117.441 111.307 119.585 108.659 119.585C106.012 119.585 103.866 117.441 103.866 114.796C103.866 112.152 106.011 110.007 108.659 110.007C111.307 110.007 113.452 112.152 113.452 114.796Z" fill="#FE5B40"></path><path d="M99.9669 43.3183H93.9394C93.5512 43.3183 93.237 43.0044 93.237 42.6165V36.5953C93.237 36.2075 93.5512 35.8936 93.9394 35.8936H99.9669C100.355 35.8936 100.669 36.2075 100.669 36.5953V42.6165C100.669 43.0033 100.355 43.3183 99.9669 43.3183Z" fill="white"></path><path d="M109.908 43.3183H103.881C103.493 43.3183 103.178 43.0044 103.178 42.6165V36.5953C103.178 36.2075 103.493 35.8936 103.881 35.8936H109.908C110.297 35.8936 110.611 36.2075 110.611 36.5953V42.6165C110.611 43.0033 110.297 43.3183 109.908 43.3183Z" fill="white"></path><path d="M119.85 43.3183H113.822C113.434 43.3183 113.12 43.0044 113.12 42.6165V36.5953C113.12 36.2075 113.434 35.8936 113.822 35.8936H119.85C120.238 35.8936 120.552 36.2075 120.552 36.5953V42.6165C120.552 43.0033 120.238 43.3183 119.85 43.3183Z" fill="white"></path><path d="M606.222 304.09H600.194C599.806 304.09 599.492 303.776 599.492 303.388V297.367C599.492 296.979 599.806 296.665 600.194 296.665H606.222C606.61 296.665 606.924 296.979 606.924 297.367V303.388C606.924 303.776 606.61 304.09 606.222 304.09Z" fill="#DEE3FC"></path><path d="M616.163 304.09H610.136C609.747 304.09 609.433 303.776 609.433 303.388V297.367C609.433 296.979 609.747 296.665 610.136 296.665H616.163C616.551 296.665 616.866 296.979 616.866 297.367V303.388C616.866 303.776 616.551 304.09 616.163 304.09Z" fill="#DEE3FC"></path><path d="M626.105 304.09H620.077C619.689 304.09 619.375 303.776 619.375 303.388V297.367C619.375 296.979 619.689 296.665 620.077 296.665H626.105C626.493 296.665 626.807 296.979 626.807 297.367V303.388C626.807 303.776 626.493 304.09 626.105 304.09Z" fill="#DEE3FC"></path><path d="M146.632 300.02H140.604C140.216 300.02 139.902 299.707 139.902 299.319V293.297C139.902 292.91 140.216 292.596 140.604 292.596H146.632C147.02 292.596 147.334 292.91 147.334 293.297V299.319C147.334 299.707 147.019 300.02 146.632 300.02Z" fill="#DEE3FC"></path><path d="M156.573 300.02H150.546C150.158 300.02 149.844 299.707 149.844 299.319V293.297C149.844 292.91 150.158 292.596 150.546 292.596H156.573C156.962 292.596 157.276 292.91 157.276 293.297V299.319C157.276 299.707 156.961 300.02 156.573 300.02Z" fill="#DEE3FC"></path><path d="M166.514 300.02H160.486C160.098 300.02 159.784 299.707 159.784 299.319V293.297C159.784 292.91 160.098 292.596 160.486 292.596H166.514C166.902 292.596 167.216 292.91 167.216 293.297V299.319C167.217 299.707 166.902 300.02 166.514 300.02Z" fill="#DEE3FC"></path><path d="M416.063 363.844H272.937C260.464 363.844 250.353 353.742 250.353 341.28V22.9813C250.353 10.5193 260.464 0.41748 272.937 0.41748H416.063C428.536 0.41748 438.647 10.5193 438.647 22.9813V341.28C438.647 353.741 428.536 363.844 416.063 363.844Z" fill="#18222C"></path><path d="M415.34 358.679H273.66C262.735 358.679 253.879 349.83 253.879 338.915V23.3627C253.879 12.447 262.735 3.59863 273.66 3.59863H415.341C426.266 3.59863 435.122 12.447 435.122 23.3627V338.913C435.121 349.829 426.265 358.679 415.34 358.679Z" fill="white"></path><path d="M427.187 22.7435V337.928C427.187 345.32 421.189 351.312 413.791 351.312H275.209C267.81 351.312 261.813 345.32 261.813 337.928V22.7435C261.813 15.3515 267.81 9.35889 275.209 9.35889H298.318C299.6 9.35889 300.773 10.0818 301.348 11.2285L303.802 16.1231C304.92 18.3817 307.228 19.7958 309.739 19.7958H379.261C381.771 19.7958 384.08 18.3817 385.198 16.1231L387.652 11.2285C388.226 10.0829 389.398 9.35889 390.682 9.35889H413.791C421.189 9.35889 427.187 15.3515 427.187 22.7435Z" fill="#E1E9F1"></path><path d="M373.676 14.0706H317.681C316.379 14.0706 315.323 13.0158 315.323 11.7147C315.323 10.4137 316.379 9.35889 317.681 9.35889H373.676C374.978 9.35889 376.034 10.4137 376.034 11.7147C376.034 13.0158 374.978 14.0706 373.676 14.0706Z" fill="#DEE3FC"></path><path d="M405.189 340.373H280.585C275.689 340.373 271.721 336.409 271.721 331.518V287.559C271.721 282.668 275.689 278.703 280.585 278.703H405.189C410.084 278.703 414.052 282.668 414.052 287.559V331.518C414.052 336.408 410.083 340.373 405.189 340.373Z" stroke="#698BD1" stroke-miterlimit="10" stroke-linecap="round" stroke-linejoin="round" stroke-dasharray="2.84 2.84"></path><path d="M398.873 189.039H337.061C333.53 189.039 330.668 186.179 330.668 182.651V152.128C330.668 148.6 333.53 145.74 337.061 145.74H398.873C402.404 145.74 405.267 148.6 405.267 152.128V182.651C405.267 186.179 402.404 189.039 398.873 189.039Z" stroke="#698BD1" stroke-miterlimit="10" stroke-linecap="round" stroke-linejoin="round" stroke-dasharray="2.84 2.84"></path><path d="M412.181 268.444H284.52C280.313 268.444 276.903 265.036 276.903 260.833V207.037C276.903 202.833 280.313 199.426 284.52 199.426H412.181C416.388 199.426 419.798 202.833 419.798 207.037V260.834C419.798 265.036 416.388 268.444 412.181 268.444Z" fill="#4D6883"></path><path d="M414.052 201.44V255.268C414.052 259.464 410.646 262.857 406.446 262.857H279.327C275.128 262.857 271.721 259.464 271.721 255.268V201.44C271.721 197.245 275.128 193.841 279.327 193.841H406.446C410.646 193.841 414.052 197.245 414.052 201.44Z" fill="#587899"></path><path d="M320.889 257.249H283.439C280.599 257.249 278.297 254.95 278.297 252.112V214.694C278.297 211.858 280.599 209.557 283.439 209.557H320.889C323.729 209.557 326.031 211.856 326.031 214.694V252.112C326.031 254.948 323.729 257.249 320.889 257.249Z" fill="white"></path><path d="M365.274 215.591H332.292C331.395 215.591 330.668 214.865 330.668 213.969C330.668 213.073 331.395 212.347 332.292 212.347H365.274C366.171 212.347 366.897 213.073 366.897 213.969C366.898 214.865 366.171 215.591 365.274 215.591Z" fill="#D0D7EF"></path><path d="M350.244 222.069H332.292C331.395 222.069 330.668 221.343 330.668 220.447C330.668 219.55 331.395 218.824 332.292 218.824H350.244C351.141 218.824 351.868 219.55 351.868 220.447C351.868 221.343 351.141 222.069 350.244 222.069Z" fill="#D0D7EF"></path><path d="M405.429 222.069H356.851C355.954 222.069 355.227 221.343 355.227 220.447C355.227 219.55 355.954 218.824 356.851 218.824H405.429C406.326 218.824 407.053 219.55 407.053 220.447C407.053 221.343 406.325 222.069 405.429 222.069Z" fill="#D0D7EF"></path><path d="M360.068 228.547H332.292C331.395 228.547 330.668 227.821 330.668 226.925C330.668 226.028 331.395 225.302 332.292 225.302H360.068C360.965 225.302 361.692 226.028 361.692 226.925C361.692 227.821 360.964 228.547 360.068 228.547Z" fill="#D0D7EF"></path><path d="M383.645 228.547H366.183C365.286 228.547 364.56 227.821 364.56 226.925C364.56 226.028 365.286 225.302 366.183 225.302H383.645C384.542 225.302 385.269 226.028 385.269 226.925C385.269 227.821 384.541 228.547 383.645 228.547Z" fill="#D0D7EF"></path><path d="M405.429 228.547H389.349C388.452 228.547 387.725 227.821 387.725 226.925C387.725 226.028 388.452 225.302 389.349 225.302H405.429C406.326 225.302 407.053 226.028 407.053 226.925C407.053 227.821 406.325 228.547 405.429 228.547Z" fill="#D0D7EF"></path><path d="M405.429 235.024H332.292C331.395 235.024 330.668 234.298 330.668 233.402C330.668 232.506 331.395 231.78 332.292 231.78H405.429C406.326 231.78 407.053 232.506 407.053 233.402C407.053 234.298 406.325 235.024 405.429 235.024Z" fill="#D0D7EF"></path><path d="M372.544 241.503H332.293C331.396 241.503 330.669 240.777 330.669 239.881C330.669 238.985 331.396 238.259 332.293 238.259H372.544C373.441 238.259 374.168 238.985 374.168 239.881C374.168 240.776 373.44 241.503 372.544 241.503Z" fill="#D0D7EF"></path><path d="M405.429 241.503H379.034C378.137 241.503 377.41 240.777 377.41 239.881C377.41 238.985 378.137 238.259 379.034 238.259H405.429C406.326 238.259 407.053 238.985 407.053 239.881C407.053 240.776 406.325 241.503 405.429 241.503Z" fill="#D0D7EF"></path><path d="M355.941 247.981H332.292C331.395 247.981 330.668 247.255 330.668 246.359C330.668 245.462 331.395 244.736 332.292 244.736H355.941C356.839 244.736 357.565 245.462 357.565 246.359C357.565 247.255 356.839 247.981 355.941 247.981Z" fill="#D0D7EF"></path><path d="M385.992 247.981H362.342C361.445 247.981 360.719 247.255 360.719 246.359C360.719 245.462 361.445 244.736 362.342 244.736H385.992C386.889 244.736 387.616 245.462 387.616 246.359C387.616 247.255 386.889 247.981 385.992 247.981Z" fill="#D0D7EF"></path><path d="M405.429 247.981H391.707C390.81 247.981 390.083 247.255 390.083 246.359C390.083 245.462 390.81 244.736 391.707 244.736H405.429C406.326 244.736 407.053 245.462 407.053 246.359C407.053 247.255 406.325 247.981 405.429 247.981Z" fill="#D0D7EF"></path><path d="M365.274 254.459H332.292C331.395 254.459 330.668 253.733 330.668 252.837C330.668 251.94 331.395 251.214 332.292 251.214H365.274C366.171 251.214 366.897 251.94 366.897 252.837C366.898 253.733 366.171 254.459 365.274 254.459Z" fill="#D0D7EF"></path><path d="M405.429 215.591H372.447C371.55 215.591 370.823 214.865 370.823 213.969C370.823 213.073 371.55 212.347 372.447 212.347H405.429C406.326 212.347 407.053 213.073 407.053 213.969C407.053 214.865 406.325 215.591 405.429 215.591Z" fill="#D0D7EF"></path><path d="M414.052 201.44V203.702H271.721V201.44C271.721 197.245 275.128 193.841 279.327 193.841H406.446C410.646 193.841 414.052 197.245 414.052 201.44Z" fill="#18222C"></path><path d="M387.225 198.95C387.225 199.924 386.435 200.712 385.461 200.712C384.487 200.712 383.698 199.924 383.698 198.95C383.698 197.978 384.487 197.188 385.461 197.188C386.434 197.188 387.225 197.977 387.225 198.95Z" fill="#DEE3FC"></path><path d="M396.246 198.95C396.246 199.924 395.457 200.712 394.482 200.712C393.508 200.712 392.719 199.924 392.719 198.95C392.719 197.978 393.508 197.188 394.482 197.188C395.457 197.188 396.246 197.977 396.246 198.95Z" fill="#DEE3FC"></path><path d="M405.267 198.95C405.267 199.924 404.478 200.712 403.504 200.712C402.529 200.712 401.74 199.924 401.74 198.95C401.74 197.978 402.529 197.188 403.504 197.188C404.477 197.188 405.267 197.977 405.267 198.95Z" fill="#DEE3FC"></path><path d="M315.787 189.04H287.618C283.441 189.04 280.054 185.657 280.054 181.482V153.338C280.054 149.164 283.441 145.78 287.618 145.78H315.787C319.965 145.78 323.352 149.163 323.352 153.338V181.482C323.351 185.656 319.965 189.04 315.787 189.04Z" stroke="#495AD6" stroke-width="0.8956" stroke-miterlimit="10"></path><path d="M294.948 161.152L288.71 167.385L294.998 173.667" stroke="#495AD6" stroke-width="1.6716" stroke-miterlimit="10" stroke-linecap="round" stroke-linejoin="round"></path><path d="M308.457 161.152L314.695 167.385L308.407 173.667" stroke="#495AD6" stroke-width="1.6716" stroke-miterlimit="10" stroke-linecap="round" stroke-linejoin="round"></path><path d="M304.623 161.152L298.782 173.667" stroke="#495AD6" stroke-width="1.6716" stroke-miterlimit="10" stroke-linecap="round" stroke-linejoin="round"></path><path d="M414.052 40.1889V128.197C414.052 132.974 410.181 136.843 405.399 136.843H280.374C275.604 136.843 271.721 132.974 271.721 128.197V40.1889C271.721 35.4117 275.604 31.5435 280.374 31.5435H405.399C410.181 31.5435 414.052 35.4117 414.052 40.1889Z" fill="#969CB5"></path><path d="M385.226 79.9599C396.619 79.9599 405.854 70.7327 405.854 59.3503C405.854 47.968 396.619 38.7407 385.226 38.7407C373.834 38.7407 364.599 47.968 364.599 59.3503C364.599 70.7327 373.834 79.9599 385.226 79.9599Z" fill="#F0F4FF"></path><path d="M355.385 136.843H280.374C275.604 136.843 271.721 132.974 271.721 128.197V114.341L304.546 57.5326C306.259 54.5627 310.554 54.5627 312.268 57.5326L337.053 100.422L355.459 132.277C356.348 133.799 356.21 135.532 355.385 136.843Z" fill="white"></path><path d="M387.733 136.843H316.002L337.053 100.422L348.393 80.795C349.937 78.1211 353.798 78.1211 355.343 80.795L387.733 136.843Z" fill="#F0F4FF"></path><path d="M530.009 300.378H474.71V383.411H530.009V300.378Z" fill="#587899"></path><path d="M530.01 383.411H551.184V300.378H530.01V383.411Z" fill="#18222C"></path><path d="M548.587 303.567H533.041V306.217H548.587V303.567Z" fill="#B2C1F9"></path><path d="M548.587 309.259H533.041V311.909H548.587V309.259Z" fill="#B2C1F9"></path><path d="M548.587 314.952H533.041V317.601H548.587V314.952Z" fill="#B2C1F9"></path><path d="M548.587 320.646H533.041V323.295H548.587V320.646Z" fill="#B2C1F9"></path><path d="M548.587 326.338H533.041V328.988H548.587V326.338Z" fill="#B2C1F9"></path><path d="M548.587 332.03H533.041V334.68H548.587V332.03Z" fill="#B2C1F9"></path><path d="M548.587 337.723H533.041V340.372H548.587V337.723Z" fill="#B2C1F9"></path><path d="M548.587 343.417H533.041V346.066H548.587V343.417Z" fill="#B2C1F9"></path><path d="M548.587 349.109H533.041V351.759H548.587V349.109Z" fill="#B2C1F9"></path><path d="M548.587 354.801H533.041V357.451H548.587V354.801Z" fill="#B2C1F9"></path><path d="M548.587 360.494H533.041V363.143H548.587V360.494Z" fill="#B2C1F9"></path><path d="M548.587 366.188H533.041V368.837H548.587V366.188Z" fill="#B2C1F9"></path><path d="M548.587 371.88H533.041V374.53H548.587V371.88Z" fill="#B2C1F9"></path><path d="M548.587 377.572H533.041V380.222H548.587V377.572Z" fill="#B2C1F9"></path><path d="M465.727 383.411H493.832C493.832 383.411 495.402 378.411 491.998 372.217C491.998 372.217 489.736 374.029 482.96 372.803C482.96 372.803 480.133 375.203 478.18 376.14C476.217 377.089 464.97 379.296 465.727 383.411Z" fill="#281616"></path><path d="M467.687 304.234C469.503 315.056 477.878 351.668 481.479 373.297C488.06 373.857 491.221 373.103 492.895 372.717C492.567 365.175 491.918 347.135 491.994 339.223C492.119 325.852 492.747 308.219 486.856 298.542L467.047 300.1C467.168 301.146 467.278 301.995 467.374 302.603C467.469 303.185 467.578 303.724 467.687 304.234Z" fill="#18222C"></path><path d="M414.892 383.411H442.997C442.997 383.411 444.567 378.411 441.163 372.217C441.163 372.217 438.902 374.029 432.125 372.803C432.125 372.803 429.298 375.203 427.345 376.14C425.383 377.089 414.135 379.296 414.892 383.411Z" fill="#281616"></path><path d="M431.312 372.664C436.682 373.993 440.572 373.863 442.414 373.655C443.908 364.962 446.268 345.832 448.394 336.867C451.69 322.93 454.916 303.764 452.675 296.925L433.189 292.036C433.123 292.652 431.537 351.311 431.312 372.664Z" fill="#060A0E"></path><path d="M508.863 272.078C508.472 268.231 508.021 265.421 508.021 265.421L486.251 270.745L467.758 274.954C460.902 276.48 452.621 278.317 445.32 279.966C437.127 281.826 431.687 288.044 433.481 296.241L435.535 306.184C446.994 306.028 500.872 300.867 505.48 298.542C510.687 295.916 512.254 286.627 508.863 272.078Z" fill="#060A0E"></path><path d="M541.362 272.078C540.971 268.231 539.093 264.103 539.093 264.103L518.75 270.745L500.257 274.954C493.401 276.48 485.119 278.317 477.817 279.966C469.624 281.826 464.185 288.044 465.979 296.241L468.032 306.184C479.492 306.028 527.388 304.359 537.978 298.542C543.089 295.734 544.752 286.627 541.362 272.078Z" fill="#18222C"></path><path d="M480.428 240.905C480.428 240.905 490.097 236.541 492.759 240.918C494.216 243.314 493.209 247.764 489.91 249.633C486.612 251.502 467.976 259.376 450.388 263.768C450.388 263.768 449.636 261.323 448.425 258.755C448.425 258.755 456.316 255.485 464.161 249.98C472.004 244.475 480.428 240.905 480.428 240.905Z" fill="#E5918F"></path><path d="M482.845 210.736L474.558 243.807C474.558 243.807 475.415 252.169 483.866 248.065C492.317 243.961 497.917 217.613 497.917 217.613L482.845 210.736Z" fill="#E5918F"></path><path d="M496.865 229.233C495.839 228.985 494.861 228.715 493.918 228.432C492.951 228.149 492.032 227.855 491.16 227.548C483.285 224.851 479.029 221.611 479.029 221.611C481.505 210.858 484.488 203.638 487.14 198.88C487.211 198.762 487.282 198.655 487.341 198.527C487.412 198.409 487.483 198.291 487.553 198.174C488.98 195.806 491.032 193.816 493.317 192.179C493.553 192.014 493.778 191.861 494.014 191.696L494.992 208.962L495.157 210.741L496.865 229.233Z" fill="white"></path><path d="M496.866 229.233C495.839 228.985 494.861 228.715 493.918 228.432C492.952 228.149 492.032 227.855 491.16 227.548C492.813 215.917 494.307 208.609 494.307 208.609L495.155 210.741L496.866 229.233Z" fill="#C7E5F2"></path><path d="M545.788 199.375C545.588 204.488 544.692 212.697 543.914 220.942C543.666 223.556 543.43 226.183 543.23 228.715C543.088 230.293 540.707 238.714 540.613 240.223C540.189 247.431 536.653 252.825 540.001 263.802C540.802 266.428 541.002 267.783 541.002 268.867C541.002 269.62 540.024 270.41 539.635 270.622C538.232 271.435 535.473 272 532.125 272.413H532.113C525.524 273.214 516.635 273.367 511.271 273.367C504.068 273.367 493.258 272.225 491.891 270.411C490.641 268.75 491.796 266.335 492.386 263.002C495.038 247.961 494.095 240.117 493.93 229.258C493.93 228.988 493.918 228.716 493.918 228.434C493.648 211.685 492.539 197.351 493.318 192.181C493.553 192.016 493.778 191.863 494.014 191.698C495.157 190.92 496.277 190.226 497.362 189.613C497.456 189.565 497.574 189.496 497.692 189.425C498.022 189.237 498.363 189.06 498.682 188.883C498.8 188.812 498.929 188.753 499.059 188.694C501.5 187.504 505.059 186.233 507.099 185.526C507.358 185.443 507.594 185.361 507.795 185.302C509.716 185.183 511.803 185.16 514.054 185.219C516.011 185.278 519.006 185.537 522.259 185.961C522.27 185.961 522.27 185.961 522.27 185.961C525.948 186.433 529.968 187.127 533.163 187.999C533.163 187.999 533.198 188.011 533.222 188.022C533.823 188.21 537.725 189.671 541.793 194.017C543.147 195.453 544.538 197.22 545.788 199.375Z" fill="white"></path><path d="M539.999 263.802C540.801 266.428 541.001 267.783 541.001 268.867C541.001 269.62 540.023 270.41 539.633 270.622C538.231 271.435 535.472 272 532.124 272.413C533.503 272.248 535.885 270.061 535.885 268.09C535.885 266.71 534.093 257.384 534.588 251.364C535.083 245.358 536.061 235.794 534.198 228.138C532.324 220.482 530.568 210.412 530.568 210.412L541.071 216.748C541.071 216.748 542.427 218.644 543.912 220.94C543.665 223.555 543.429 226.182 543.229 228.714C543.088 230.293 536.651 252.824 539.999 263.802Z" fill="#C7E5F2"></path><path d="M493.791 155.111C493.791 155.111 494.7 166.087 498.343 166.825C501.985 167.563 501.091 162.899 501.091 162.899L500.583 157.687L493.791 155.111Z" fill="#002C54"></path><path d="M510.588 194.888C503.456 194.04 506.119 187.114 507.098 185.525C507.357 185.442 508.583 185.065 508.677 185.007C508.689 184.995 508.7 184.995 508.7 184.995C508.936 184.807 509.113 184.524 509.255 184.171C509.95 182.346 509.632 178.706 509.608 178.47C509.608 178.458 509.608 178.458 509.608 178.458V177.799C509.725 177.363 509.844 176.951 509.938 176.562L513.687 173.618L521.621 167.387C521.621 167.387 519.51 177.81 521.208 184.383C521.338 184.878 521.597 185.573 522.258 185.961C522.258 185.973 522.269 185.961 522.269 185.961C522.482 186.103 522.741 186.197 523.059 186.243C525.005 187.162 522.293 196.278 510.588 194.888Z" fill="#E5918F"></path><path d="M516.873 174.01C516.873 174.01 516.806 180.966 509.249 184.166C509.952 182.35 509.628 178.709 509.606 178.474L512.772 175.99L516.873 174.01Z" fill="#CC6362"></path><path d="M495.533 156.673C495.533 156.673 497.181 179.446 503.335 181.381C503.335 181.381 511.177 182.119 516.807 174.553C518.428 172.374 520.478 171.883 521.148 169.25C522.235 164.974 523.769 157.088 521.812 152.335C519.026 145.565 495.797 140.19 495.533 156.673Z" fill="#E5918F"></path><path d="M521.906 148.576C521.805 144.44 517.615 142.893 517.615 142.893C513.443 140.942 504.773 141.785 495.834 143.777C493.738 144.244 491.109 142.959 489.645 143.974C487.876 145.2 489.637 150.801 489.637 150.801C493.085 161.234 505.772 157.841 509.586 156.554C510.492 159.239 510.375 162.975 512.636 164.9C513.924 165.997 516.162 166.029 518.439 165.65C518.719 166.182 519.772 166.65 519.985 167.382C520.703 169.821 520.6 173.633 520.578 176.576L521.654 176.051C521.794 175.255 532.923 148.918 521.906 148.576Z" fill="#002C54"></path><path d="M501.846 164.342C502.167 166.233 501.234 167.969 499.761 168.22C498.287 168.47 496.833 167.141 496.51 165.249C496.188 163.358 497.121 161.622 498.595 161.371C500.069 161.121 501.523 162.451 501.846 164.342Z" stroke="white" stroke-width="0.501" stroke-miterlimit="10"></path><path d="M509.282 162.954C509.604 164.845 508.671 166.582 507.197 166.832C505.724 167.083 504.268 165.753 503.946 163.861C503.625 161.97 504.558 160.234 506.031 159.983C507.505 159.733 508.961 161.063 509.282 162.954Z" stroke="white" stroke-width="0.501" stroke-miterlimit="10"></path><path d="M501.846 164.342C501.846 164.342 502.172 163.814 503.884 163.962" stroke="white" stroke-width="0.501" stroke-miterlimit="10"></path><path d="M509.347 163.408L515.703 162.393" stroke="white" stroke-width="0.501" stroke-miterlimit="10"></path><path d="M516.171 170.454C520.548 172.129 521.916 161.364 517.759 160.886C514.606 160.524 514.477 164.919 514.477 164.919C514.477 164.919 513.671 169.498 516.171 170.454Z" fill="#E5918F"></path><g opacity="0.5"><g opacity="0.5"><path opacity="0.5" d="M517.615 162.511C517.615 162.511 517.331 162.801 517.072 163.282C516.811 163.761 516.58 164.416 516.538 165.118C516.497 165.466 516.506 165.823 516.522 166.162C516.534 166.504 516.575 166.824 516.598 167.108C516.629 167.395 516.654 167.635 516.671 167.802C516.688 167.973 516.688 168.075 516.688 168.075C516.688 168.075 516.625 167.997 516.531 167.852C516.451 167.702 516.285 167.502 516.174 167.226C516.051 166.953 515.922 166.624 515.853 166.249C515.768 165.878 515.744 165.464 515.776 165.048C515.815 164.634 515.923 164.22 516.099 163.866C516.266 163.506 516.507 163.218 516.732 163.007C517.204 162.59 517.615 162.511 517.615 162.511Z" fill="#CC6362"></path></g><g opacity="0.5"><path opacity="0.5" d="M518.298 164.554C518.298 164.554 518.119 164.573 517.874 164.666C517.628 164.752 517.326 164.925 517.097 165.157C516.864 165.385 516.713 165.668 516.638 165.887C516.558 166.106 516.533 166.259 516.533 166.259L515.811 166.002C515.811 166.002 515.896 165.818 516.072 165.575C516.243 165.329 516.528 165.036 516.87 164.849C517.207 164.657 517.577 164.569 517.848 164.549C518.12 164.524 518.298 164.554 518.298 164.554Z" fill="#CC6362"></path></g></g><path d="M558.262 245.264C558.262 245.264 558.262 245.264 558.261 245.275C556.337 247.505 549.035 249.13 545.522 246.045C544.419 245.062 543.173 242.473 541.948 239.26C538.833 231.044 535.886 218.754 535.886 218.754L552.225 210.412C552.225 210.412 554.327 219.829 556.138 228.777C556.138 228.777 556.154 228.867 556.187 229.027C556.777 231.893 557.326 234.713 557.756 237.132C557.774 237.201 557.781 237.257 557.787 237.325C558.218 240.214 558.496 243.226 558.262 245.264Z" fill="#E5918F"></path><path d="M529.714 207.32C531.293 213.876 536.252 226.299 536.252 226.299C539.726 226.875 544.384 226.235 548.244 224.85C552.7 223.251 555.882 219.893 555.882 219.893C555.882 219.893 552.593 210.657 549.642 204.021C546.992 198.065 545.401 195.841 544.254 194.66C542.527 192.854 539.742 190.782 537.766 189.84L529.714 207.32Z" fill="white"></path><path d="M550.377 211.602L540.789 207.468L533.234 188.019C533.234 188.019 534.618 188.44 536.442 189.175C536.442 189.175 536.442 189.175 536.45 189.175C536.485 189.192 536.565 189.219 536.696 189.271C536.739 189.289 536.792 189.306 536.837 189.333C538.467 190.095 544.786 193.816 549.159 207.337C549.194 207.451 549.229 207.564 549.264 207.678C549.728 209.237 550.07 210.49 550.254 211.138C550.272 211.199 550.289 211.26 550.307 211.33C550.332 211.418 550.35 211.515 550.377 211.602Z" fill="white"></path><path d="M558.262 245.264C558.262 245.264 558.262 245.264 558.261 245.274C558.12 246.47 557.79 247.329 557.199 247.633C557.105 247.694 555.763 248.492 555.669 248.552C553.671 249.773 550.048 251.848 545.541 253.785C534.612 258.503 518.734 263.974 510.174 266.481C510.174 266.481 509.329 264.065 508.011 261.549C508.011 261.549 515.754 257.956 523.364 252.132C530.986 246.32 541.947 239.26 541.947 239.26L544.715 236.006C544.715 236.006 554.556 226.957 556.137 228.778C556.137 228.778 556.153 228.868 556.186 229.028C556.421 229.971 557.202 233.443 557.755 237.133C557.773 237.202 557.78 237.258 557.786 237.325C558.219 240.214 558.496 243.226 558.262 245.264Z" fill="#E5918F"></path><path d="M509.143 260.997C509.143 260.997 507.218 262.155 505.258 261.743C504.174 261.516 503.736 261.072 502.934 260.931C502.132 260.791 499.997 260.527 498.939 260.009C497.882 259.491 497.468 259.433 497.507 260.494C497.544 261.555 499.63 262.471 500.196 262.766C500.761 263.06 501.471 264 501.547 264.119C501.624 264.237 498.07 266.095 497.115 265.718C497.115 265.718 496.831 266.573 496.992 267.05C497.154 267.527 497.885 267.694 497.941 267.934C497.998 268.174 497.774 268.665 497.932 269.045C498.09 269.426 498.742 269.427 499.005 270.046C499.269 270.664 498.979 270.675 499.17 271.32C499.362 271.965 500.188 272.08 500.345 272.413C500.501 272.746 500.419 273.135 500.765 273.365C501.111 273.594 504.307 272.569 505.474 272.07C506.641 271.57 509.758 267.087 513.208 265.558L509.143 260.997Z" fill="#E5918F"></path><path d="M525.476 281.011H500.62V278.582H525.476C526.147 278.582 526.692 279.126 526.692 279.797C526.692 280.468 526.147 281.011 525.476 281.011Z" fill="#375F84"></path><path d="M512.027 281.011H449.792C449.047 281.011 448.392 280.515 448.194 279.798L435.456 233.984C435.175 232.971 435.938 231.967 436.991 231.967H497.173C498.576 231.967 499.806 232.901 500.182 234.251L512.873 279.899C513.028 280.459 512.607 281.011 512.027 281.011Z" fill="#375F84"></path><path d="M509.774 281.011H447.539C446.794 281.011 446.14 280.515 445.94 279.798L433.203 233.984C432.922 232.971 433.684 231.967 434.738 231.967H494.921C496.324 231.967 497.554 232.901 497.93 234.251L510.621 279.899C510.776 280.459 510.355 281.011 509.774 281.011Z" fill="#416284"></path><path d="M263.115 251.41L270.324 244.026C270.324 244.026 270.574 240.733 270.966 240.038C271.359 239.344 272.373 236.771 272.878 236.491C273.383 236.211 274.393 236.491 274.393 236.491C274.393 236.491 275.394 236.155 275.844 236.155C276.293 236.155 277.133 236.565 277.133 236.565C277.133 236.565 278.211 236.492 278.66 236.492C279.109 236.492 279.253 236.618 279.253 236.618C279.253 236.618 280.991 234.621 281.833 233.947C282.675 233.274 283.963 232.035 284.344 232.04C284.704 232.044 284.863 232.676 284.6 233.349C284.338 234.022 283.198 235.108 283.198 235.108L279.913 240.08C279.913 240.08 280.475 239.856 280.774 239.669C281.074 239.482 283.076 237.613 283.198 237.538C283.319 237.463 284.217 236.864 284.741 237.463C285.265 238.061 281.302 242.804 280.665 243.439C280.03 244.076 276.386 245.918 276.386 245.918C276.386 245.918 272.54 252.83 272.166 253.279C271.792 253.728 263.115 251.41 263.115 251.41Z" fill="#E49191"></path><path d="M269.9 217.322C269.9 217.322 265.873 240.629 262.082 241.17C262.082 241.17 246.95 241.78 243.58 223.44C240.656 207.534 252.382 204.142 257.867 205.359C263.351 206.576 271.077 207.366 269.9 217.322Z" fill="#E49191"></path><path d="M256.527 237.443C256.527 237.443 254.406 240.297 253.663 247.214C253.663 247.214 247.362 248.113 241.551 245.124C241.551 245.124 244.682 235.369 245.066 224.779" fill="#E49191"></path><path d="M252.258 201.456C243.989 203.281 244.651 208.429 244.651 208.429C240.779 209.386 239.947 210.983 239.979 218.122C240.011 225.263 242.597 233.835 244.023 234.533C245.449 235.231 253.533 235.264 254.208 235.019C254.883 234.774 257.712 228.224 257.052 227.071C256.392 225.919 257.085 221.387 258.968 221.216C260.851 221.044 260.482 223.961 260.482 223.961L262.03 223.622L263.224 220.694C274.151 221.344 276.975 208.902 276.975 208.902C274.35 207.193 260.529 199.632 252.258 201.456Z" fill="#002C54"></path><path d="M160.466 359.235L168.827 360.443L166.058 370.197L157.003 367.915C157.003 367.915 153.319 362.925 158.882 359.235C159.149 359.057 160.028 359.135 160.466 359.235Z" fill="#E5918F"></path><path d="M222.872 334.18L210.548 296.899C210.548 296.899 206.813 295.569 204.899 296.899C204.899 296.899 192.062 303.796 193.431 323.463C194.464 338.289 197.597 354.369 198.867 360.818L165.987 359.604C165.987 359.604 161.93 364.421 164.555 370.691C164.555 370.691 205.868 381.792 211.689 382.818C216.418 383.652 221.595 384.295 224.095 382.156C228.5 378.386 222.872 334.18 222.872 334.18Z" fill="#060A0E"></path><path d="M199.395 359.235L207.757 360.443L204.987 370.197L195.932 367.915C195.932 367.915 192.248 362.925 197.811 359.235C198.078 359.057 198.958 359.135 199.395 359.235Z" fill="#E5918F"></path><path d="M196.362 364.349C196.174 366.27 197.856 368 197.549 368.479C197.241 368.957 191.62 378.379 191.62 378.379C191.62 378.379 195.863 380.225 195.179 382.892H184.434C184.434 382.892 181.627 380.361 181.696 376.737C181.696 376.737 182.426 372.566 184.343 368.873C186.259 365.18 190.616 356.843 190.616 356.843C190.616 356.843 191.938 356.309 194.197 356.912C196.844 357.617 199.395 359.235 199.395 359.235C199.395 359.235 196.824 359.604 196.362 364.349Z" fill="#467CDB"></path><path d="M282.438 374.324C279.785 364.434 254.824 322.21 246.379 310.809C229.035 303.284 210.548 296.9 210.548 296.9C202.903 298.724 199.137 314.116 203.473 324.376C206.448 331.416 225.32 349.133 236.876 359.564L204.806 359.525C204.806 359.525 201.029 365.167 204.452 370.526C204.452 370.526 257.79 382.643 262.467 383.327C267.146 384.011 277.644 383.327 277.644 383.327C277.644 383.327 284.671 382.651 282.438 374.324Z" fill="#18222C"></path><path d="M157.432 364.349C157.245 366.27 158.927 368 158.619 368.479C158.312 368.957 152.691 378.379 152.691 378.379C152.691 378.379 156.934 380.225 156.25 382.892H145.504C145.504 382.892 142.698 380.361 142.767 376.737C142.767 376.737 143.497 372.566 145.413 368.873C147.33 365.18 151.686 356.843 151.686 356.843C151.686 356.843 153.008 356.309 155.268 356.912C157.914 357.617 160.466 359.235 160.466 359.235C160.466 359.235 157.894 359.604 157.432 364.349Z" fill="#467CDB"></path><path d="M322.594 244.234L305.392 274.465L293.074 262.196L282.877 277.361L285.838 278.781L284.773 279.667C284.773 279.667 308.547 291.235 311.395 288.682C314.244 286.131 327.518 247.67 327.518 247.67L322.594 244.234Z" fill="#E49191"></path><path d="M295.269 264.114C295.269 264.114 292.021 277.801 285.526 284.291L268.908 277.97C268.908 277.97 261.196 290.928 253.654 300.863C250.755 304.699 249.793 310.1 246.386 310.808C246.175 310.734 245.974 310.671 245.762 310.618C236.527 307.849 222.903 310.787 211.658 306.612C199.239 301.994 201.651 299.394 201.651 299.394C201.651 299.394 209.183 285.834 213.456 271.47C215.36 265.118 216.683 259.232 217.561 254.634C219.137 246.496 225.664 240.133 233.893 239.024C233.989 239.013 234.073 238.992 234.168 238.981C243.583 237.787 268.231 240.693 273.023 242.744C277.814 244.794 295.269 264.114 295.269 264.114Z" fill="#416284"></path><path d="M268.908 277.971C268.908 277.971 261.196 290.928 253.654 300.863C250.755 304.7 249.793 310.101 246.386 310.809C247.878 310.28 250.353 302.438 251.231 300.673C252.12 298.919 253.527 297.154 256.573 290.992C259.609 284.819 263.731 275.773 263.731 275.773L268.908 277.971Z" fill="#5996EF"></path><path d="M236.877 359.563C236.877 359.563 237.138 359.505 237.599 359.445C238.06 359.398 238.721 359.301 239.516 359.271C241.106 359.184 243.233 359.247 245.338 359.539C246.389 359.691 247.436 359.876 248.403 360.12C249.372 360.349 250.264 360.619 251.013 360.893C251.768 361.15 252.373 361.436 252.796 361.625C253.219 361.819 253.454 361.944 253.454 361.944C253.454 361.944 253.186 361.913 252.73 361.835C252.28 361.739 251.624 361.651 250.849 361.519C249.3 361.26 247.246 360.93 245.184 360.654C244.155 360.495 243.12 360.383 242.151 360.247C241.178 360.126 240.27 360.012 239.491 359.914C237.923 359.703 236.877 359.563 236.877 359.563Z" fill="black"></path><path d="M335.449 233.106C335.172 233.079 333.409 234.493 332.557 235.191L333.538 233.315C333.538 233.315 334.835 232.064 335.301 231.377C335.768 230.69 335.522 230.003 335.154 229.966C334.895 229.94 333.343 231.17 332.445 231.902L332.643 231.525C332.643 231.525 333.94 230.274 334.406 229.587C334.873 228.9 334.627 228.213 334.259 228.176C333.891 228.139 330.907 230.641 330.907 230.641L329.453 232.585L330.549 230.459C330.549 230.459 331.127 229.754 331.511 228.985C331.896 228.217 331.618 227.982 331.404 227.725C331.19 227.47 329.182 228.964 328.669 229.561C328.156 230.159 326.532 232.582 326.404 232.924L324.725 236.394C324.618 235.389 324.449 233.668 324.33 232.572C324.159 230.992 322.728 230.619 322.678 231.388C322.628 232.156 321.831 235.935 322.012 237.985C322.193 240.034 322.536 241.38 322.664 242.533C322.792 243.686 321.596 245.99 321.596 245.99C321.596 245.99 326.383 248.96 327.174 248.071C327.965 247.182 329.649 245.208 330.464 243.878C331.582 242.052 332.337 239.65 332.337 239.65L333.833 236.458C333.833 236.458 335.13 235.206 335.596 234.519C336.063 233.83 335.817 233.143 335.449 233.106Z" fill="#E49191"></path><path d="M610.218 136.848H554.086C550.488 136.848 547.572 139.762 547.572 143.356V156.605C547.572 159.921 550.054 162.658 553.264 163.062C553.734 163.121 554.086 163.521 554.086 163.994V171.247C554.086 171.666 554.624 171.839 554.868 171.497L560.586 163.509C560.764 163.261 561.05 163.114 561.356 163.114H610.218C613.816 163.114 616.732 160.2 616.732 156.605V143.356C616.732 139.762 613.816 136.848 610.218 136.848Z" stroke="white" stroke-width="0.8956" stroke-miterlimit="10"></path><path d="M562.697 149.96C562.697 151.144 561.737 152.102 560.553 152.102C559.368 152.102 558.409 151.142 558.409 149.96C558.409 148.776 559.369 147.816 560.553 147.816C561.737 147.817 562.697 148.777 562.697 149.96Z" stroke="white" stroke-width="0.8956" stroke-miterlimit="10"></path><path d="M573.497 149.96C573.497 151.144 572.536 152.102 571.352 152.102C570.168 152.102 569.208 151.142 569.208 149.96C569.208 148.776 570.169 147.816 571.352 147.816C572.536 147.817 573.497 148.777 573.497 149.96Z" stroke="white" stroke-width="0.8956" stroke-miterlimit="10"></path><path d="M584.296 149.96C584.296 151.144 583.336 152.102 582.152 152.102C580.967 152.102 580.007 151.142 580.007 149.96C580.007 148.776 580.967 147.816 582.152 147.816C583.337 147.817 584.296 148.777 584.296 149.96Z" stroke="white" stroke-width="0.8956" stroke-miterlimit="10"></path><path d="M595.097 149.96C595.097 151.144 594.136 152.102 592.952 152.102C591.768 152.102 590.807 151.142 590.807 149.96C590.807 148.776 591.768 147.816 592.952 147.816C594.136 147.817 595.097 148.777 595.097 149.96Z" stroke="white" stroke-width="0.8956" stroke-miterlimit="10"></path><path d="M605.896 149.96C605.896 151.144 604.935 152.102 603.752 152.102C602.567 152.102 601.606 151.142 601.606 149.96C601.606 148.776 602.567 147.816 603.752 147.816C604.936 147.817 605.896 148.777 605.896 149.96Z" stroke="white" stroke-width="0.8956" stroke-miterlimit="10"></path><path d="M166.669 194.931H222.802C226.4 194.931 229.316 197.845 229.316 201.44V214.689C229.316 218.005 226.833 220.742 223.624 221.145C223.153 221.205 222.802 221.604 222.802 222.078V229.33C222.802 229.75 222.264 229.922 222.019 229.581L216.302 221.593C216.124 221.344 215.837 221.197 215.532 221.197H166.669C163.072 221.197 160.155 218.283 160.155 214.689V201.44C160.155 197.845 163.072 194.931 166.669 194.931Z" stroke="white" stroke-width="0.8956" stroke-miterlimit="10"></path><path d="M214.19 208.044C214.19 209.228 215.151 210.187 216.335 210.187C217.519 210.187 218.479 209.227 218.479 208.044C218.479 206.86 217.518 205.902 216.335 205.902C215.151 205.902 214.19 206.86 214.19 208.044Z" stroke="white" stroke-width="0.8956" stroke-miterlimit="10"></path><path d="M203.391 208.044C203.391 209.228 204.351 210.187 205.535 210.187C206.72 210.187 207.679 209.227 207.679 208.044C207.679 206.86 206.719 205.902 205.535 205.902C204.351 205.902 203.391 206.86 203.391 208.044Z" stroke="white" stroke-width="0.8956" stroke-miterlimit="10"></path><path d="M192.59 208.044C192.59 209.228 193.551 210.187 194.735 210.187C195.919 210.187 196.879 209.227 196.879 208.044C196.879 206.86 195.918 205.902 194.735 205.902C193.551 205.902 192.59 206.86 192.59 208.044Z" stroke="white" stroke-width="0.8956" stroke-miterlimit="10"></path><path d="M181.791 208.044C181.791 209.228 182.752 210.187 183.935 210.187C185.12 210.187 186.081 209.227 186.081 208.044C186.081 206.86 185.12 205.902 183.935 205.902C182.752 205.902 181.791 206.86 181.791 208.044Z" stroke="white" stroke-width="0.8956" stroke-miterlimit="10"></path><path d="M170.992 208.044C170.992 209.228 171.952 210.187 173.136 210.187C174.321 210.187 175.28 209.227 175.28 208.044C175.28 206.86 174.32 205.902 173.136 205.902C171.951 205.902 170.992 206.86 170.992 208.044Z" stroke="white" stroke-width="0.8956" stroke-miterlimit="10"></path><path d="M505.669 106.282H403.36C397.717 106.282 393.143 101.712 393.143 96.0747C393.143 90.4372 397.717 85.8672 403.36 85.8672H505.669C511.311 85.8672 515.885 90.4372 515.885 96.0747C515.885 101.712 511.311 106.282 505.669 106.282Z" fill="white" stroke="#34597D" stroke-width="0.8956" stroke-miterlimit="10"></path><path d="M504.17 95.3706C504.17 98.3691 501.738 100.799 498.737 100.799C495.737 100.799 493.304 98.3691 493.304 95.3706C493.304 92.3722 495.736 89.9424 498.737 89.9424C501.737 89.9424 504.17 92.3722 504.17 95.3706Z" stroke="#18222C" stroke-width="1.6716" stroke-miterlimit="10"></path><path d="M502.578 99.2095L505.578 102.206" stroke="#18222C" stroke-width="1.6716" stroke-miterlimit="10" stroke-linecap="round"></path><path d="M350.689 383.903H324.951C320.448 383.903 316.798 380.255 316.798 375.756V350.041C316.798 345.541 320.448 341.894 324.951 341.894H350.689C355.193 341.894 358.843 345.541 358.843 350.041V375.756C358.842 380.255 355.193 383.903 350.689 383.903Z" fill="#213345"></path><path d="M343.027 383.903H317.289C312.785 383.903 309.135 380.255 309.135 375.756V350.041C309.135 345.541 312.785 341.894 317.289 341.894H343.027C347.53 341.894 351.18 345.541 351.18 350.041V375.756C351.18 380.255 347.53 383.903 343.027 383.903Z" fill="#30669C"></path><path d="M325.192 354.97L337.26 361.932C338.005 362.362 338.005 363.436 337.26 363.866L325.192 370.828C324.447 371.258 323.515 370.72 323.515 369.861V355.937C323.516 355.077 324.447 354.54 325.192 354.97Z" fill="white"></path><path d="M616.928 383.903H583.282C577.395 383.903 572.623 379.135 572.623 373.254V339.637C572.623 333.755 577.395 328.987 583.282 328.987H616.928C622.815 328.987 627.587 333.755 627.587 339.637V373.254C627.587 379.135 622.815 383.903 616.928 383.903Z" fill="#213345"></path><path d="M606.911 383.903H573.265C567.378 383.903 562.606 379.135 562.606 373.254V339.637C562.606 333.755 567.378 328.987 573.265 328.987H606.911C612.798 328.987 617.57 333.755 617.57 339.637V373.254C617.57 379.135 612.798 383.903 606.911 383.903Z" fill="#30669C"></path><path d="M596.692 342.461C596.692 346.105 593.735 349.059 590.088 349.059C586.44 349.059 583.484 346.105 583.484 342.461C583.484 338.816 586.44 335.862 590.088 335.862C593.735 335.862 596.692 338.816 596.692 342.461Z" fill="white"></path><path d="M603.854 364.8V374.54C603.854 375.42 603.14 376.134 602.259 376.134H577.915C577.034 376.134 576.32 375.42 576.32 374.54V364.8C576.32 357.204 582.484 351.046 590.087 351.046C597.691 351.046 603.854 357.204 603.854 364.8Z" fill="white"></path><path d="M467.171 118.041H445.562C444.665 118.041 443.938 117.315 443.938 116.419C443.938 115.522 444.665 114.796 445.562 114.796H467.171C468.068 114.796 468.795 115.522 468.795 116.419C468.795 117.315 468.068 118.041 467.171 118.041Z" fill="#F0F4FF"></path><path d="M488.79 118.041H473.151C472.254 118.041 471.527 117.315 471.527 116.419C471.527 115.522 472.254 114.796 473.151 114.796H488.79C489.687 114.796 490.414 115.522 490.414 116.419C490.414 117.315 489.687 118.041 488.79 118.041Z" fill="#F0F4FF"></path><path d="M454.743 125.175H445.562C444.665 125.175 443.938 124.449 443.938 123.553C443.938 122.657 444.665 121.931 445.562 121.931H454.743C455.64 121.931 456.367 122.657 456.367 123.553C456.367 124.449 455.639 125.175 454.743 125.175Z" fill="#F0F4FF"></path><path d="M488.79 125.175H460.193C459.296 125.175 458.569 124.449 458.569 123.553C458.569 122.657 459.296 121.931 460.193 121.931H488.79C489.687 121.931 490.414 122.657 490.414 123.553C490.414 124.449 489.687 125.175 488.79 125.175Z" fill="#F0F4FF"></path><path d="M474.047 132.309H445.562C444.665 132.309 443.938 131.583 443.938 130.687C443.938 129.791 444.665 129.064 445.562 129.064H474.047C474.944 129.064 475.671 129.791 475.671 130.687C475.671 131.583 474.944 132.309 474.047 132.309Z" fill="#F0F4FF"></path><path d="M488.79 132.309H479.608C478.711 132.309 477.984 131.583 477.984 130.687C477.984 129.791 478.711 129.064 479.608 129.064H488.79C489.687 129.064 490.414 129.791 490.414 130.687C490.414 131.583 489.687 132.309 488.79 132.309Z" fill="#F0F4FF"></path><path d="M193.526 283.756H118.087C115.852 283.756 114.042 281.947 114.042 279.715V241.667C114.042 239.436 115.853 237.626 118.087 237.626H193.526C195.759 237.626 197.57 239.436 197.57 241.667V279.715C197.571 281.947 195.76 283.756 193.526 283.756Z" fill="#18222C"></path><path d="M117.592 243.858H194.021" stroke="white" stroke-width="0.8956" stroke-miterlimit="10" stroke-linecap="round"></path><path d="M192.003 241.612C192.515 241.612 192.929 241.198 192.929 240.687C192.929 240.177 192.515 239.763 192.003 239.763C191.492 239.763 191.078 240.177 191.078 240.687C191.078 241.198 191.492 241.612 192.003 241.612Z" fill="white"></path><path d="M187.177 241.612C187.688 241.612 188.102 241.198 188.102 240.687C188.102 240.177 187.688 239.763 187.177 239.763C186.665 239.763 186.251 240.177 186.251 240.687C186.251 241.198 186.665 241.612 187.177 241.612Z" fill="white"></path><path d="M182.351 241.612C182.862 241.612 183.276 241.198 183.276 240.687C183.276 240.177 182.862 239.763 182.351 239.763C181.84 239.763 181.425 240.177 181.425 240.687C181.425 241.198 181.84 241.612 182.351 241.612Z" fill="white"></path><path d="M131.839 250.067H118.87C118.165 250.067 117.592 249.495 117.592 248.79C117.592 248.085 118.165 247.514 118.87 247.514H131.839C132.545 247.514 133.117 248.085 133.117 248.79C133.117 249.495 132.545 250.067 131.839 250.067Z" fill="#46536F"></path><path d="M131.839 255.968H118.87C118.165 255.968 117.592 255.396 117.592 254.691C117.592 253.986 118.165 253.415 118.87 253.415H131.839C132.545 253.415 133.117 253.986 133.117 254.691C133.117 255.396 132.545 255.968 131.839 255.968Z" fill="#46536F"></path><path d="M131.839 261.868H118.87C118.165 261.868 117.592 261.297 117.592 260.592C117.592 259.887 118.165 259.315 118.87 259.315H131.839C132.545 259.315 133.117 259.887 133.117 260.592C133.117 261.297 132.545 261.868 131.839 261.868Z" fill="#46536F"></path><path d="M131.839 267.77H118.87C118.165 267.77 117.592 267.198 117.592 266.494C117.592 265.789 118.165 265.217 118.87 265.217H131.839C132.545 265.217 133.117 265.789 133.117 266.494C133.117 267.198 132.545 267.77 131.839 267.77Z" fill="#46536F"></path><path d="M131.839 273.671H118.87C118.165 273.671 117.592 273.099 117.592 272.394C117.592 271.689 118.165 271.118 118.87 271.118H131.839C132.545 271.118 133.117 271.689 133.117 272.394C133.117 273.099 132.545 273.671 131.839 273.671Z" fill="#46536F"></path><path d="M131.839 279.572H118.87C118.165 279.572 117.592 279 117.592 278.295C117.592 277.59 118.165 277.018 118.87 277.018H131.839C132.545 277.018 133.117 277.59 133.117 278.295C133.117 279 132.545 279.572 131.839 279.572Z" fill="#46536F"></path><path d="M192.742 250.067H136.853C136.148 250.067 135.576 249.495 135.576 248.79C135.576 248.085 136.148 247.514 136.853 247.514H192.742C193.447 247.514 194.02 248.085 194.02 248.79C194.021 249.495 193.448 250.067 192.742 250.067Z" fill="#7687B0"></path><path d="M192.742 255.968H136.853C136.148 255.968 135.576 255.396 135.576 254.691C135.576 253.986 136.148 253.415 136.853 253.415H192.742C193.447 253.415 194.02 253.986 194.02 254.691C194.021 255.396 193.448 255.968 192.742 255.968Z" fill="#7687B0"></path><path d="M192.742 261.868H136.853C136.148 261.868 135.576 261.297 135.576 260.592C135.576 259.887 136.148 259.315 136.853 259.315H192.742C193.447 259.315 194.02 259.887 194.02 260.592C194.021 261.297 193.448 261.868 192.742 261.868Z" fill="#7687B0"></path><path d="M192.742 267.77H136.853C136.148 267.77 135.576 267.198 135.576 266.494C135.576 265.789 136.148 265.217 136.853 265.217H192.742C193.447 265.217 194.02 265.789 194.02 266.494C194.021 267.198 193.448 267.77 192.742 267.77Z" fill="#7687B0"></path><path d="M192.742 273.671H136.853C136.148 273.671 135.576 273.099 135.576 272.394C135.576 271.689 136.148 271.118 136.853 271.118H192.742C193.447 271.118 194.02 271.689 194.02 272.394C194.021 273.099 193.448 273.671 192.742 273.671Z" fill="#7687B0"></path><path d="M192.742 279.572H136.853C136.148 279.572 135.576 279 135.576 278.295C135.576 277.59 136.148 277.018 136.853 277.018H192.742C193.447 277.018 194.02 277.59 194.02 278.295C194.021 279 193.448 279.572 192.742 279.572Z" fill="#7687B0"></path><path d="M585.137 42.7659C589.561 24.3142 578.177 5.77227 559.709 1.35144C541.241 -3.06939 522.683 8.30493 518.258 26.7567C513.834 45.2084 525.218 63.7503 543.686 68.1711C562.154 72.592 580.712 61.2177 585.137 42.7659Z" stroke="#DEE3FC" stroke-width="0.7896" stroke-miterlimit="10"></path><path d="M563.797 62.1046C578.895 55.4305 585.72 37.791 579.04 22.7057C572.36 7.62037 554.705 0.801794 539.606 7.47594C524.508 14.1501 517.683 31.7896 524.363 46.8749C531.043 61.9602 548.698 68.7788 563.797 62.1046Z" fill="#34597D"></path><path d="M554.412 34.7721C554.412 36.2739 553.194 37.4904 551.692 37.4904C550.189 37.4904 548.971 36.2729 548.971 34.7721C548.971 33.2702 550.19 32.0537 551.692 32.0537C553.195 32.0537 554.412 33.2702 554.412 34.7721Z" fill="white"></path><path d="M551.396 34.2385C550.984 34.4658 550.467 34.3178 550.238 33.9067L541.447 18.0626C541.218 17.6515 541.367 17.1347 541.779 16.9064C542.19 16.6792 542.708 16.8271 542.936 17.2372L551.728 33.0812C551.955 33.4924 551.807 34.0102 551.396 34.2385Z" fill="white"></path><path d="M552.124 35.2045C552.457 34.8726 552.996 34.8726 553.328 35.2045L560.934 42.8036C561.266 43.1355 561.266 43.6745 560.934 44.0064C560.602 44.3382 560.062 44.3382 559.73 44.0064L552.124 36.4072C551.792 36.0743 551.792 35.5363 552.124 35.2045Z" fill="white"></path><path d="M551.875 10.8651V7.43018" stroke="white" stroke-width="2" stroke-miterlimit="10" stroke-linecap="round"></path><path d="M575.62 34.9551H579.058" stroke="white" stroke-width="2" stroke-miterlimit="10" stroke-linecap="round"></path><path d="M551.509 58.6792V62.1141" stroke="white" stroke-width="2" stroke-miterlimit="10" stroke-linecap="round"></path><path d="M527.764 34.5894H524.326" stroke="white" stroke-width="2" stroke-miterlimit="10" stroke-linecap="round"></path><g opacity="0.5"><path opacity="0.5" d="M539.886 13.9766L538.167 11.0024" stroke="#DEE3FC" stroke-miterlimit="10" stroke-linecap="round"></path><path opacity="0.5" d="M572.506 22.9772L575.482 21.2598" stroke="#DEE3FC" stroke-miterlimit="10" stroke-linecap="round"></path><path opacity="0.5" d="M563.497 55.5679L565.216 58.542" stroke="#DEE3FC" stroke-miterlimit="10" stroke-linecap="round"></path><path opacity="0.5" d="M530.878 46.5674L527.901 48.2848" stroke="#DEE3FC" stroke-miterlimit="10" stroke-linecap="round"></path></g><g opacity="0.5"><path opacity="0.5" d="M531.061 22.6603L528.084 20.9429" stroke="#DEE3FC" stroke-miterlimit="10" stroke-linecap="round"></path><path opacity="0.5" d="M563.815 14.1597L565.534 11.1855" stroke="#DEE3FC" stroke-miterlimit="10" stroke-linecap="round"></path><path opacity="0.5" d="M572.323 46.8848L575.299 48.6022" stroke="#DEE3FC" stroke-miterlimit="10" stroke-linecap="round"></path><path opacity="0.5" d="M539.569 55.3853L537.85 58.3594" stroke="#DEE3FC" stroke-miterlimit="10" stroke-linecap="round"></path></g><path d="M143.151 207.664H105.392C99.801 207.664 95.2692 203.136 95.2692 197.55V159.824C95.2692 154.238 99.801 149.71 105.392 149.71H143.151C148.741 149.71 153.273 154.238 153.273 159.824V197.55C153.273 203.136 148.741 207.664 143.151 207.664Z" fill="#537BA4"></path><path d="M140.667 202.643H98.8827C94.4039 202.643 90.7723 199.015 90.7723 194.54V152.792C90.7723 148.317 94.4039 144.689 98.8827 144.689H140.667C145.146 144.689 148.777 148.316 148.777 152.792V194.54C148.777 199.016 145.147 202.643 140.667 202.643Z" fill="#24578A" stroke="#DEE3FC" stroke-miterlimit="10"></path><path d="M129.819 167.031H129.516V163.711C129.516 158.262 125.081 153.829 119.627 153.829C114.173 153.829 109.737 158.262 109.737 163.711V167.031H109.67C108.138 167.031 106.895 168.273 106.895 169.804V182.315C106.895 183.846 108.138 185.088 109.67 185.088H129.819C131.352 185.088 132.595 183.846 132.595 182.315V169.804C132.595 168.273 131.352 167.031 129.819 167.031ZM112.242 163.711C112.242 159.643 115.556 156.333 119.627 156.333C123.698 156.333 127.011 159.643 127.011 163.711V167.031H112.241V163.711H112.242Z" fill="#DEE3FC"></path><path d="M123.002 173.461C123.002 171.463 121.185 169.891 119.112 170.303C117.89 170.546 116.876 171.548 116.621 172.765C116.315 174.235 117.01 175.575 118.148 176.241C118.378 176.376 118.511 176.63 118.441 176.887L117.879 178.958C117.546 180.189 118.474 181.4 119.749 181.4C121.026 181.4 121.954 180.189 121.621 178.958L121.065 176.91C120.994 176.649 121.13 176.391 121.366 176.257C122.342 175.705 123.002 174.663 123.002 173.461Z" fill="#24578A"></path><path d="M131.405 189.475H108.086C107.429 189.475 106.896 188.943 106.896 188.286C106.896 187.63 107.429 187.097 108.086 187.097H131.405C132.062 187.097 132.595 187.63 132.595 188.286C132.595 188.943 132.062 189.475 131.405 189.475Z" fill="#DEE3FC"></path><path d="M131.405 193.504H108.086C107.429 193.504 106.896 192.971 106.896 192.315C106.896 191.659 107.429 191.126 108.086 191.126H131.405C132.062 191.126 132.595 191.659 132.595 192.315C132.595 192.972 132.062 193.504 131.405 193.504Z" fill="#DEE3FC"></path><path d="M600.043 275.785H577.814C574.523 275.785 571.854 273.119 571.854 269.83V247.621C571.854 244.333 574.522 241.668 577.814 241.668H600.043C603.334 241.668 606.002 244.333 606.002 247.621V269.831C606.002 273.119 603.334 275.785 600.043 275.785Z" fill="#193091"></path><path d="M598.581 272.83H573.982C571.345 272.83 569.208 270.694 569.208 268.059V243.482C569.208 240.847 571.346 238.711 573.982 238.711H598.581C601.218 238.711 603.355 240.847 603.355 243.482V268.059C603.355 270.694 601.218 272.83 598.581 272.83Z" fill="#4B83BB" stroke="#DEE3FC" stroke-miterlimit="10"></path><path d="M579.382 265.96C579.286 265.96 579.19 265.947 579.094 265.92C578.531 265.762 578.204 265.178 578.364 264.617L583.528 246.352C583.687 245.789 584.274 245.46 584.832 245.623C585.395 245.781 585.722 246.365 585.562 246.926L580.398 265.191C580.268 265.657 579.843 265.96 579.382 265.96Z" fill="white"></path><path d="M588.018 265.96C587.921 265.96 587.825 265.947 587.73 265.92C587.167 265.762 586.84 265.178 587 264.617L592.165 246.352C592.323 245.789 592.911 245.46 593.47 245.623C594.032 245.781 594.359 246.365 594.199 246.926L589.034 265.191C588.903 265.657 588.479 265.96 588.018 265.96Z" fill="white"></path><path d="M595.421 252.689H577.141C576.556 252.689 576.083 252.216 576.083 251.632C576.083 251.047 576.556 250.575 577.141 250.575H595.421C596.006 250.575 596.479 251.047 596.479 251.632C596.479 252.216 596.006 252.689 595.421 252.689Z" fill="white"></path><path d="M595.421 261.033H577.141C576.556 261.033 576.083 260.56 576.083 259.976C576.083 259.391 576.556 258.919 577.141 258.919H595.421C596.006 258.919 596.479 259.391 596.479 259.976C596.479 260.559 596.006 261.033 595.421 261.033Z" fill="white"></path><path d="M187.807 167.409H174.586C173.785 167.409 173.137 166.76 173.137 165.961C173.137 165.161 173.786 164.513 174.586 164.513H187.807C188.608 164.513 189.256 165.162 189.256 165.961C189.256 166.761 188.608 167.409 187.807 167.409Z" fill="#F0F4FF"></path><path d="M201.125 173.839H174.586C173.785 173.839 173.137 173.19 173.137 172.391C173.137 171.591 173.786 170.943 174.586 170.943H201.125C201.926 170.943 202.574 171.592 202.574 172.391C202.574 173.19 201.926 173.839 201.125 173.839Z" fill="#F0F4FF"></path><path d="M177.721 180.268H174.586C173.785 180.268 173.137 179.62 173.137 178.821C173.137 178.02 173.786 177.373 174.586 177.373H177.721C178.521 177.373 179.17 178.02 179.17 178.821C179.17 179.62 178.521 180.268 177.721 180.268Z" fill="#F0F4FF"></path><path d="M201.125 180.268H182.646C181.845 180.268 181.197 179.62 181.197 178.821C181.197 178.02 181.845 177.373 182.646 177.373H201.125C201.926 177.373 202.574 178.02 202.574 178.821C202.574 179.62 201.926 180.268 201.125 180.268Z" fill="#F0F4FF"></path><path d="M201.125 167.409H193.111C192.31 167.409 191.662 166.76 191.662 165.961C191.662 165.161 192.311 164.513 193.111 164.513H201.125C201.926 164.513 202.574 165.162 202.574 165.961C202.574 166.761 201.926 167.409 201.125 167.409Z" fill="#F0F4FF"></path><path d="M126.569 364.971C124.846 364.971 123.235 365.443 121.856 366.264C121.302 361.333 117.117 357.499 112.033 357.499C106.572 357.499 102.145 361.922 102.145 367.377C102.145 367.743 102.166 368.103 102.205 368.46C101.752 368.375 101.285 368.329 100.807 368.329C96.637 368.329 93.2572 371.705 93.2572 375.872C93.2572 380.038 96.637 383.415 100.807 383.415H126.57C131.668 383.415 135.8 379.287 135.8 374.193C135.8 369.1 131.667 364.971 126.569 364.971Z" fill="white"></path><path d="M61.0473 325.363C60.7977 323.984 60.8315 322.573 61.1795 321.215C62.3442 316.667 63.6771 308.115 60.7152 298.874C55.774 283.459 35.7472 269.806 35.7472 269.806C35.7472 269.806 41.1834 292.554 45.6517 302.24C48.9235 309.332 54.6475 317.403 57.8241 321.651C58.7053 322.83 59.3093 324.189 59.5716 325.637C62.8097 343.538 62.341 357.395 62.3326 357.609L63.8358 357.668C63.8442 357.451 64.3202 343.452 61.0473 325.363Z" fill="#DEE3FC"></path><path d="M77.0153 310.869C80.9938 298.302 82.8439 283.5 82.8439 283.5C82.8439 283.5 64.8873 298.304 63.4158 309.757C62.5146 316.773 63.6348 322.4 64.6397 325.711C65.066 327.117 65.2215 328.587 65.0639 330.048C63.2466 346.904 64.6704 359.822 64.6926 360.019L66.0445 359.864C66.0223 359.675 64.7011 347.655 66.2572 331.727C66.4698 329.546 67.3499 327.484 68.7314 325.782C71.3009 322.614 74.9747 317.315 77.0153 310.869Z" fill="#B4C1EF"></path><path d="M95.2691 282.915C95.2691 282.915 75.9193 290.089 70.8597 305.874C67.7804 315.481 69.2349 324.361 70.4387 328.961C70.7762 330.252 70.7582 331.599 70.4345 332.894C65.9017 351.059 65.8319 369.862 65.8319 370.112H67.3731C67.3731 369.866 67.444 351.511 71.8202 333.697C72.255 331.928 73.0272 330.264 74.1147 328.8C77.4151 324.359 83.0311 316.369 86.2829 309.321C90.8601 299.403 95.2691 282.915 95.2691 282.915Z" fill="#DEE3FC"></path><path d="M61.1277 349.516C60.6464 342.909 58.8439 336.96 56.6595 331.97C56.2215 330.97 56.0681 329.877 56.2078 328.795C56.4786 326.711 56.5896 323.473 55.7561 319.36C54.1852 311.615 43.8978 294.884 29.0015 293.903C29.0015 293.903 34.1415 302.159 36.786 309.066C40.1319 317.805 44.908 326.946 52.8291 330.455C54.2222 331.072 55.3128 332.228 55.8936 333.634C57.803 338.258 59.3358 343.66 59.7695 349.614L61.1277 349.516Z" fill="#B4C1EF"></path><path d="M51.0561 383.411H75.6379L82.0156 344.47C82.298 342.746 80.9662 341.181 79.2187 341.181H47.4753C45.7267 341.181 44.396 342.746 44.6784 344.47L51.0561 383.411Z" fill="#DEE3FC"></path><path d="M0.589203 383.412H688.411" stroke="white" stroke-width="1.1144" stroke-miterlimit="10" stroke-linecap="round"></path></g><defs><clipPath id="clip0"><rect width="689" height="384" fill="white"></rect></clipPath></defs></svg>